<?xml version="1.0" standalone="no"?><!DOCTYPE svg PUBLIC "-//W3C//DTD SVG 1.1//EN" "http://www.w3.org/Graphics/SVG/1.1/DTD/svg11.dtd"><svg class="icon" height="512" viewBox="0 0 1024 1024" version="1.1" xmlns="http://www.w3.org/2000/svg"><path d="M287.323724 682.758475v-33.327467h89.170173l-37.075912-64.544707-2.990769 1.735485a8.272993 8.272993 0 0 1-6.325563 0.837539 8.321116 8.321116 0 0 1-5.062089-3.905099l-37.71584-65.660742v364.828771h223.176284L395.637481 682.758475H287.323724z m0-363.409666l74.473323 140.631673-0.051195 0.026621c0.939927 1.798967 1.287024 3.920457 0.722864 6.037852-1.191803 4.470283-5.76345 7.12317-10.211209 5.925224-2.341626-0.630713-4.128306-2.224903-5.171645-4.225574l-0.051194 0.027645-59.710944-112.756396v10.850113l67.163805 116.92668h349.429536V99.527797H287.323724v219.821012z m283.271185 563.375494h133.321132V682.758475H455.73443l114.860479 199.965828z m-180.060473-337.175676a8.388692 8.388692 0 0 1 0.832419 6.358327c-0.596925 2.240261-2.093845 3.920457-3.951174 4.970964l0.066553 0.116723-2.990769 1.735485 52.099381 90.700882h267.327243v-133.30987H373.631113l16.903323 29.427489zM787.235734 99.527797h-49.991201v383.265874h83.318668V132.855264c0-18.406386-14.921081-33.327467-33.327467-33.327467z m-49.991201 783.196506h49.991201c18.406386 0 33.327467-14.922105 33.327467-33.328491v-166.637337h-83.318668v199.965828z m0-233.293295h83.318668v-133.30987h-83.318668v133.30987z" fill="#FFFFFF" /><path d="M737.244533 516.121138v133.30987h83.318668v-133.30987h-83.318668z m-400.816293 70.500648a8.272993 8.272993 0 0 1-6.325563 0.837539 8.321116 8.321116 0 0 1-5.06209-3.905099l-37.713792-65.65767v131.534452h89.169149l-37.075911-64.544707-2.991793 1.735485z m54.106196-41.073159a8.388692 8.388692 0 0 1 0.832419 6.358327c-0.596925 2.240261-2.093845 3.920457-3.951174 4.970964l0.066553 0.116723-2.990769 1.735485 52.099381 90.700882h267.326219v-133.30987h-330.284928l16.902299 29.427489z" fill="#EE6A56" /><path d="M520.615995 249.5014H370.642392v16.663734h149.973603v-16.663734z m-149.973603 33.327467v16.663734h249.956005v-16.663734H370.642392z m0 49.991201h216.628538v-16.663734H370.642392v16.663734z" fill="" /><path d="M787.235734 66.20033H270.65999c-9.202681 0-16.663734 7.460028-16.663734 16.663733v224.983442l-16.737453-29.138752a8.320092 8.320092 0 0 0-5.062089-3.905099 8.267874 8.267874 0 0 0-6.325564 0.837538l-51.053994 29.627146a8.349785 8.349785 0 0 0-3.88462 5.08871 8.393812 8.393812 0 0 0 0.832418 6.358328l82.232326 143.159646v439.513015c0 9.202681 7.461052 16.663734 16.663734 16.663733h258.983602l6.045019 10.523494c0.559041 0.974739 1.332075 1.811253 2.242309 2.497256l-0.017406 0.023549 35.949637 27.032621 0.043003-0.058362c0.824228 0.626618 1.73139 1.15699 2.79316 1.442655 4.446734 1.197946 9.018382-1.454941 10.210184-5.925225 0.283616-1.061769 0.319452-2.127634 0.196586-3.157662l0.028669-0.003072-0.01843-0.156654a0.035836 0.035836 0 0 0-0.001024-0.006144l-3.822164-32.211432h203.941575c36.812773 0 66.654935-29.843186 66.654934-66.654935V132.855264c0-36.812773-29.842162-66.654935-66.654934-66.654934z m-499.91201 816.523973V517.894508l37.71584 65.660742a8.327259 8.327259 0 0 0 5.062089 3.905098 8.272993 8.272993 0 0 0 6.325563-0.837538l2.990769-1.735485 37.074888 64.544707h-89.170173v33.327467h108.313757L510.49796 882.725327H287.323724z m416.593341 0H570.595933L455.733406 682.758475h248.182635v199.965828z m0-233.293295h-267.326219l-52.099381-90.700882 2.990769-1.735485-0.066553-0.116723c1.857328-1.05153 3.354248-2.730702 3.951174-4.970964a8.388692 8.388692 0 0 0-0.832419-6.358327l-16.903323-29.427489h330.285952v133.30987z m0-166.636313H354.487529L287.323724 365.868015v-10.850113l59.710944 112.756395 0.051194-0.027645c1.043339 1.999648 2.831043 3.594861 5.171645 4.225575 4.447758 1.197946 9.019406-1.454941 10.211209-5.925224 0.564161-2.117395 0.21604-4.238885-0.722864-6.037852l0.051195-0.026621-74.473323-140.631673V99.527797h416.593341v383.266898z m116.646136 366.601117c0 18.406386-14.921081 33.328491-33.327467 33.328491h-49.991201V682.758475h83.318668v166.637337z m0-199.964804h-83.318668v-133.30987h83.318668v133.30987z m0-166.636313h-83.318668V99.527797h49.991201c18.406386 0 33.327467 14.921081 33.327467 33.327467v349.939431z" fill="" /></svg>